<svg width="118" height="118" viewBox="0 0 118 118" fill="none" xmlns="http://www.w3.org/2000/svg">
<path d="M100.853 94.6028C99.3597 91.8741 101.268 89.1084 104.522 85.6791C109.685 80.2308 115.308 67.6103 110.09 54.787C110.118 54.7133 109.058 52.5561 109.095 52.4823L106.937 52.3717C106.246 52.2703 82.6369 52.2242 59 52.2242C35.3631 52.2242 11.7539 52.2703 11.0625 52.3717C11.0625 52.3717 7.88202 54.7133 7.90968 54.7778C2.69187 67.6011 8.31531 80.2216 13.4778 85.6698C16.732 89.0992 18.6403 91.8741 17.1469 94.5936C15.6995 97.2394 11.3759 97.6266 11.3759 97.6266C11.3759 97.6266 12.3716 100.337 14.7776 101.793C16.9994 103.139 19.7281 103.462 21.618 103.508C21.618 103.508 28.993 113.713 48.2786 113.713H69.7398C89.0255 113.713 96.4005 103.508 96.4005 103.508C98.2903 103.462 101.019 103.149 103.241 101.793C105.647 100.337 106.642 97.6266 106.642 97.6266C106.642 97.6266 102.31 97.2486 100.853 94.6028Z" fill="#543930"/>
<path d="M58.9908 113.723V102.393L93.2661 99.6823L96.382 103.517C96.382 103.517 89.007 113.723 69.7214 113.723H58.9908Z" fill="url(#paint0_radial_7_31)"/>
<path d="M96.2991 98.5761C91.1642 90.777 102.549 87.8731 102.549 87.8731L102.559 87.8823C100.577 90.3437 99.6823 92.4917 100.844 94.6028C102.291 97.2486 106.615 97.6358 106.615 97.6358C106.615 97.6358 100.733 102.872 96.2991 98.5761Z" fill="url(#paint1_radial_7_31)"/>
<path d="M110.118 54.7778C115.216 67.1955 109.851 79.9819 104.826 85.3749C104.135 86.1124 101.213 88.9886 100.549 91.2749C100.549 91.2749 89.0992 75.3172 85.6883 65.9325C84.9969 64.0427 84.37 62.0883 84.287 60.0786C84.2225 58.5667 84.4622 56.7691 85.3288 55.4877C86.3981 53.9113 109.51 53.4503 109.51 53.4503C109.51 53.4688 110.118 54.7778 110.118 54.7778Z" fill="url(#paint2_radial_7_31)"/>
<path d="M7.90971 54.7778C2.82096 67.1955 8.17705 79.9819 13.2013 85.3749C13.8927 86.1124 16.815 88.9886 17.4788 91.2749C17.4788 91.2749 28.9285 75.3172 32.3394 65.9325C33.0308 64.0427 33.6577 62.0883 33.7406 60.0786C33.8052 58.5667 33.5655 56.7691 32.6989 55.4877C31.6296 53.9113 30.385 54.3353 28.5781 54.3353C25.1211 54.3353 10.0024 53.4503 8.83158 53.4503C8.83158 53.4688 7.90971 54.7778 7.90971 54.7778Z" fill="url(#paint3_radial_7_31)"/>
<path d="M59.0369 113.723V102.393L24.7616 99.6823L21.6456 103.517C21.6456 103.517 29.0206 113.723 48.3063 113.723H59.0369Z" fill="url(#paint4_radial_7_31)"/>
<path d="M21.7286 98.5761C26.8635 90.777 15.4783 87.8731 15.4783 87.8731L15.4691 87.8823C17.4511 90.3437 18.3453 92.4917 17.1838 94.6028C15.7364 97.2486 11.4128 97.6358 11.4128 97.6358C11.4128 97.6358 17.2944 102.872 21.7286 98.5761Z" fill="url(#paint5_radial_7_31)"/>
<path d="M91.7727 59.3411H26.2273C19.1566 59.3411 13.3764 65.4992 13.3764 73.0309C13.3764 80.5627 19.1566 86.7208 26.2273 86.7208H91.7819C98.8526 86.7208 104.633 80.5627 104.633 73.0309C104.633 65.4992 98.8434 59.3411 91.7727 59.3411Z" fill="#E59600"/>
<path d="M59 12.1227C38.1288 12.1227 18.7971 34.4412 18.7971 66.5686C18.7971 98.5208 38.7188 114.312 59 114.312C79.2813 114.312 99.203 98.5208 99.203 66.5686C99.203 34.4505 79.8713 12.1227 59 12.1227Z" fill="#FFCA28"/>
<path d="M63.6278 80.4705C63.5038 80.4196 63.3736 80.3855 63.2406 80.3691H54.7594C54.6303 80.3875 54.5013 80.4152 54.3722 80.4705C53.607 80.7839 53.183 81.5767 53.5425 82.4249C53.9113 83.273 55.5983 85.6514 59 85.6514C62.4017 85.6514 64.0888 83.273 64.4575 82.4249C64.8263 81.5767 64.4022 80.7839 63.6278 80.4705Z" fill="#E59600"/>
<path d="M69.0945 90.0764C65.278 92.3442 52.7497 92.3442 48.9331 90.0764C46.7391 88.7674 44.4989 90.7678 45.4116 92.7591C46.3058 94.7135 53.1369 99.2675 59.0461 99.2675C64.9553 99.2675 71.6942 94.7227 72.5976 92.7591C73.5011 90.7678 71.2886 88.7766 69.0945 90.0764Z" fill="#795548"/>
<path d="M39.5484 75.391C42.7662 75.391 45.3747 72.6875 45.3747 69.3527C45.3747 66.0178 42.7662 63.3144 39.5484 63.3144C36.3307 63.3144 33.7222 66.0178 33.7222 69.3527C33.7222 72.6875 36.3307 75.391 39.5484 75.391Z" fill="#404040"/>
<path d="M78.4516 75.391C81.6693 75.391 84.2778 72.6875 84.2778 69.3527C84.2778 66.0178 81.6693 63.3144 78.4516 63.3144C75.2338 63.3144 72.6253 66.0178 72.6253 69.3527C72.6253 72.6875 75.2338 75.391 78.4516 75.391Z" fill="#404040"/>
<path d="M48.2049 58.5114C47.0986 57.0456 44.5266 54.9069 39.5485 54.9069C34.5703 54.9069 31.9983 57.0456 30.892 58.5114C30.4035 59.1659 30.5233 59.9126 30.8644 60.3644C31.1778 60.7884 32.1089 61.1756 33.1414 60.8253C34.1739 60.475 36.1836 59.4333 39.5485 59.4148C42.9133 59.4425 44.9322 60.475 45.9555 60.8253C46.9788 61.1756 47.9191 60.7884 48.2325 60.3644C48.5736 59.9126 48.6935 59.1659 48.2049 58.5114ZM87.1172 58.5114C86.011 57.0456 83.4389 54.9069 78.4608 54.9069C73.4827 54.9069 70.9106 57.0456 69.8044 58.5114C69.3158 59.1659 69.4356 59.9126 69.7767 60.3644C70.0902 60.7884 71.0213 61.1756 72.0538 60.8253C73.0863 60.475 75.096 59.4333 78.4608 59.4148C81.8256 59.4425 83.8445 60.475 84.8678 60.8253C85.9003 61.1756 86.8314 60.7884 87.1449 60.3644C87.4767 59.9126 87.6058 59.1659 87.1172 58.5114Z" fill="#6D4C41"/>
<path d="M107.067 28.9561C104.135 24.5219 97.5804 18.585 91.6897 18.1978C90.7494 12.5375 84.6834 7.74374 78.8203 5.88155C62.9548 0.857335 52.6206 6.48999 47.0801 9.51374C45.9278 10.1406 38.479 14.2706 33.2705 11.3114C30.007 9.45843 30.0715 4.43421 30.0715 4.43421C30.0715 4.43421 19.848 8.32452 23.3419 19.1842C19.8295 19.3317 15.2201 20.8067 12.7864 25.7387C9.88248 31.6111 10.915 36.5247 11.7539 38.8755C8.73014 41.4383 4.93201 46.905 7.54092 53.9942C9.50451 59.3319 17.3405 61.784 17.3405 61.784C16.7873 71.39 18.5758 77.3084 19.5253 79.6961C19.6912 80.1109 20.2905 80.0741 20.3919 79.6408C21.5719 74.8839 25.6281 58.2994 25.2225 55.4047C25.2225 55.4047 38.8294 52.7036 51.8094 43.153C54.4551 41.2078 57.313 39.5484 60.3551 38.3408C76.6539 31.8508 80.0648 42.9225 80.0648 42.9225C80.0648 42.9225 91.3578 40.7561 94.7687 56.4464C96.0501 62.328 96.9167 71.7403 97.645 78.3225C97.7003 78.7834 98.3272 78.8848 98.5115 78.4516C99.6547 75.8427 101.932 70.6525 102.476 65.3702C102.669 63.508 107.684 61.0466 109.832 53.0631C112.727 42.397 109.178 32.155 107.067 28.9561Z" fill="#543930"/>
<path d="M102.439 65.407C102.632 63.5448 107.647 61.0834 109.795 53.1C110.026 52.2519 110.219 51.3853 110.395 50.5187C112.146 40.8114 109.002 31.9061 107.048 28.9561C104.338 24.863 98.53 19.4884 93.0172 18.3914C92.5378 18.3269 92.0677 18.2716 91.6252 18.2439C91.6252 18.2439 92.0216 20.8159 90.9798 22.8717C89.6339 25.5359 86.8959 26.1628 86.8959 26.1628C101.268 40.5348 100.245 52.5561 102.439 65.407Z" fill="url(#paint6_radial_7_31)"/>
<path d="M50.5464 7.69767C49.2373 8.33376 48.0758 8.96986 47.0709 9.51376C45.9186 10.1406 38.4698 14.2706 33.2612 11.3114C30.0531 9.48611 30.0531 4.61861 30.0623 4.44345C28.5873 6.32408 24.1255 19.7742 37.17 20.6684C42.7934 21.0556 46.2689 16.1513 48.3155 11.9936C49.0622 10.491 50.233 8.28767 50.5464 7.69767Z" fill="url(#paint7_radial_7_31)"/>
<path d="M77.1794 5.39296C85.9556 7.7714 90.2423 12.2333 91.6713 18.207C92.0953 19.9586 92.5931 36.2942 61.4061 17.7277C49.8089 10.8228 52.9709 6.49921 54.3353 6.01062C59.6361 4.0839 67.343 2.72874 77.1794 5.39296Z" fill="url(#paint8_radial_7_31)"/>
<path d="M30.0255 4.44343C30.007 4.45264 29.9886 4.46186 29.9517 4.47108H29.9425C28.827 4.94124 20.0508 8.99749 23.3326 19.1658L32.6712 20.6684C24.4112 12.307 30.0623 4.42499 30.0623 4.42499L30.0255 4.44343Z" fill="url(#paint9_radial_7_31)"/>
<path d="M29.1036 20.1061L23.3327 19.175C23.1114 19.175 22.3371 19.2487 21.9222 19.3041C18.6772 19.7558 14.8422 21.4336 12.7772 25.7387C10.5463 30.3666 10.6108 34.3398 11.21 36.9948C11.3852 37.8891 11.7447 38.8847 11.7447 38.8847C11.7447 38.8847 14.6025 36.1744 21.3967 35.9992L29.1036 20.1061Z" fill="url(#paint10_radial_7_31)"/>
<path d="M11.4681 39.1059C8.62876 41.6319 4.79376 47.2553 7.62391 54.2247C9.75344 59.4886 17.3313 61.7748 17.3313 61.7748C17.3313 61.8025 18.8431 62.245 19.6267 62.245L21.3967 35.9808C17.7645 35.9808 14.2799 37.0686 12.0213 38.6358C12.0397 38.6911 11.4589 39.0691 11.4681 39.1059Z" fill="url(#paint11_radial_7_31)"/>
<defs>
<radialGradient id="paint0_radial_7_31" cx="0" cy="0" r="1" gradientUnits="userSpaceOnUse" gradientTransform="translate(76.4907 97.3638) scale(28.0886 13.7971)">
<stop offset="0.728" stop-color="#6D4C41" stop-opacity="0"/>
<stop offset="1" stop-color="#6D4C41"/>
</radialGradient>
<radialGradient id="paint1_radial_7_31" cx="0" cy="0" r="1" gradientUnits="userSpaceOnUse" gradientTransform="translate(104.156 93.1845) rotate(154.924) scale(8.30014 6.15752)">
<stop offset="0.663" stop-color="#6D4C41"/>
<stop offset="1" stop-color="#6D4C41" stop-opacity="0"/>
</radialGradient>
<radialGradient id="paint2_radial_7_31" cx="0" cy="0" r="1" gradientUnits="userSpaceOnUse" gradientTransform="translate(82.6453 69.7072) rotate(-94.2783) scale(36.4597 30.3868)">
<stop offset="0.725" stop-color="#6D4C41" stop-opacity="0"/>
<stop offset="1" stop-color="#6D4C41"/>
</radialGradient>
<radialGradient id="paint3_radial_7_31" cx="0" cy="0" r="1" gradientUnits="userSpaceOnUse" gradientTransform="translate(35.3821 69.7067) rotate(-85.7217) scale(36.4597 30.3868)">
<stop offset="0.725" stop-color="#6D4C41" stop-opacity="0"/>
<stop offset="1" stop-color="#6D4C41"/>
</radialGradient>
<radialGradient id="paint4_radial_7_31" cx="0" cy="0" r="1" gradientUnits="userSpaceOnUse" gradientTransform="translate(41.536 97.3638) rotate(180) scale(28.0886 13.7971)">
<stop offset="0.728" stop-color="#6D4C41" stop-opacity="0"/>
<stop offset="1" stop-color="#6D4C41"/>
</radialGradient>
<radialGradient id="paint5_radial_7_31" cx="0" cy="0" r="1" gradientUnits="userSpaceOnUse" gradientTransform="translate(13.8716 93.1856) rotate(25.0761) scale(8.30014 6.15752)">
<stop offset="0.663" stop-color="#6D4C41"/>
<stop offset="1" stop-color="#6D4C41" stop-opacity="0"/>
</radialGradient>
<radialGradient id="paint6_radial_7_31" cx="0" cy="0" r="1" gradientUnits="userSpaceOnUse" gradientTransform="translate(80.6106 50.4702) rotate(72.0851) scale(42.7366 31.7095)">
<stop offset="0.699" stop-color="#6D4C41" stop-opacity="0"/>
<stop offset="1" stop-color="#6D4C41"/>
</radialGradient>
<radialGradient id="paint7_radial_7_31" cx="0" cy="0" r="1" gradientUnits="userSpaceOnUse" gradientTransform="translate(38.9463 3.87371) rotate(28.2026) scale(11.2056 13.2866)">
<stop offset="0.58" stop-color="#6D4C41"/>
<stop offset="1" stop-color="#6D4C41" stop-opacity="0"/>
</radialGradient>
<radialGradient id="paint8_radial_7_31" cx="0" cy="0" r="1" gradientUnits="userSpaceOnUse" gradientTransform="translate(63.9898 24.2257) rotate(-157.19) scale(35.0457 19.6958)">
<stop offset="0.699" stop-color="#6D4C41" stop-opacity="0"/>
<stop offset="1" stop-color="#6D4C41"/>
</radialGradient>
<radialGradient id="paint9_radial_7_31" cx="0" cy="0" r="1" gradientUnits="userSpaceOnUse" gradientTransform="translate(34.4477 14.0953) scale(10.2854 12.5821)">
<stop offset="0.702" stop-color="#6D4C41" stop-opacity="0"/>
<stop offset="1" stop-color="#6D4C41"/>
</radialGradient>
<radialGradient id="paint10_radial_7_31" cx="0" cy="0" r="1" gradientUnits="userSpaceOnUse" gradientTransform="translate(33.0322 32.2506) rotate(-164.942) scale(19.2909 18.0528)">
<stop offset="0.66" stop-color="#6D4C41" stop-opacity="0"/>
<stop offset="1" stop-color="#6D4C41"/>
</radialGradient>
<radialGradient id="paint11_radial_7_31" cx="0" cy="0" r="1" gradientUnits="userSpaceOnUse" gradientTransform="translate(28.4585 50.8773) rotate(7.83355) scale(20.2533 28.4593)">
<stop offset="0.598" stop-color="#6D4C41" stop-opacity="0"/>
<stop offset="1" stop-color="#6D4C41"/>
</radialGradient>
</defs>
</svg>
